<mxfile host="app.diagrams.net" modified="2022-12-29T16:44:45.740Z" agent="5.0 (Windows NT 10.0; Win64; x64) AppleWebKit/537.36 (KHTML, like Gecko) Chrome/108.0.0.0 Safari/537.36 Edg/108.0.1462.54" etag="SbWMo3BfOrbPjPdHHEyl" version="20.7.4" type="github">
  <diagram id="wh1W36pk23jFmzXjL_Ck" name="Page-1">
    <mxGraphModel dx="1174" dy="1912" grid="1" gridSize="10" guides="1" tooltips="1" connect="1" arrows="1" fold="1" page="1" pageScale="1" pageWidth="827" pageHeight="1169" math="0" shadow="0">
      <root>
        <mxCell id="0" />
        <mxCell id="1" parent="0" />
        <mxCell id="EDyrPu7dQQNRPbhDMoSb-8" style="edgeStyle=orthogonalEdgeStyle;rounded=0;orthogonalLoop=1;jettySize=auto;html=1;entryX=0.5;entryY=1;entryDx=0;entryDy=0;" parent="1" source="EDyrPu7dQQNRPbhDMoSb-4" target="EDyrPu7dQQNRPbhDMoSb-7" edge="1">
          <mxGeometry relative="1" as="geometry" />
        </mxCell>
        <mxCell id="EDyrPu7dQQNRPbhDMoSb-15" style="edgeStyle=orthogonalEdgeStyle;rounded=0;orthogonalLoop=1;jettySize=auto;html=1;entryX=0;entryY=0.25;entryDx=0;entryDy=0;exitX=1;exitY=0.25;exitDx=0;exitDy=0;" parent="1" source="EDyrPu7dQQNRPbhDMoSb-4" target="EDyrPu7dQQNRPbhDMoSb-6" edge="1">
          <mxGeometry relative="1" as="geometry" />
        </mxCell>
        <mxCell id="EDyrPu7dQQNRPbhDMoSb-4" value="Server" style="rounded=1;whiteSpace=wrap;html=1;" parent="1" vertex="1">
          <mxGeometry x="70" y="350" width="160" height="80" as="geometry" />
        </mxCell>
        <mxCell id="EDyrPu7dQQNRPbhDMoSb-16" style="edgeStyle=orthogonalEdgeStyle;rounded=0;orthogonalLoop=1;jettySize=auto;html=1;exitX=0;exitY=0.75;exitDx=0;exitDy=0;entryX=1;entryY=0.75;entryDx=0;entryDy=0;" parent="1" source="EDyrPu7dQQNRPbhDMoSb-6" target="EDyrPu7dQQNRPbhDMoSb-4" edge="1">
          <mxGeometry relative="1" as="geometry" />
        </mxCell>
        <mxCell id="EDyrPu7dQQNRPbhDMoSb-21" style="edgeStyle=orthogonalEdgeStyle;rounded=0;orthogonalLoop=1;jettySize=auto;html=1;entryX=0.5;entryY=1;entryDx=0;entryDy=0;" parent="1" source="EDyrPu7dQQNRPbhDMoSb-6" target="EDyrPu7dQQNRPbhDMoSb-19" edge="1">
          <mxGeometry relative="1" as="geometry" />
        </mxCell>
        <mxCell id="EDyrPu7dQQNRPbhDMoSb-22" style="edgeStyle=orthogonalEdgeStyle;rounded=0;orthogonalLoop=1;jettySize=auto;html=1;entryX=0.5;entryY=1;entryDx=0;entryDy=0;" parent="1" source="EDyrPu7dQQNRPbhDMoSb-6" target="EDyrPu7dQQNRPbhDMoSb-20" edge="1">
          <mxGeometry relative="1" as="geometry" />
        </mxCell>
        <mxCell id="EDyrPu7dQQNRPbhDMoSb-6" value="Bowser" style="rounded=1;whiteSpace=wrap;html=1;" parent="1" vertex="1">
          <mxGeometry x="610" y="350" width="160" height="80" as="geometry" />
        </mxCell>
        <mxCell id="EDyrPu7dQQNRPbhDMoSb-10" style="edgeStyle=orthogonalEdgeStyle;rounded=0;orthogonalLoop=1;jettySize=auto;html=1;" parent="1" source="EDyrPu7dQQNRPbhDMoSb-7" target="EDyrPu7dQQNRPbhDMoSb-9" edge="1">
          <mxGeometry relative="1" as="geometry" />
        </mxCell>
        <mxCell id="EDyrPu7dQQNRPbhDMoSb-13" style="edgeStyle=orthogonalEdgeStyle;rounded=0;orthogonalLoop=1;jettySize=auto;html=1;entryX=0.5;entryY=1;entryDx=0;entryDy=0;" parent="1" source="EDyrPu7dQQNRPbhDMoSb-7" target="EDyrPu7dQQNRPbhDMoSb-12" edge="1">
          <mxGeometry relative="1" as="geometry">
            <Array as="points">
              <mxPoint x="150" y="120" />
              <mxPoint x="260" y="120" />
            </Array>
          </mxGeometry>
        </mxCell>
        <mxCell id="zgpdS88G5yF-iRk3dVeh-2" style="edgeStyle=orthogonalEdgeStyle;rounded=0;orthogonalLoop=1;jettySize=auto;html=1;entryX=0.5;entryY=1;entryDx=0;entryDy=0;" edge="1" parent="1" source="EDyrPu7dQQNRPbhDMoSb-7" target="zgpdS88G5yF-iRk3dVeh-1">
          <mxGeometry relative="1" as="geometry">
            <Array as="points">
              <mxPoint x="150" y="120" />
              <mxPoint x="390" y="120" />
            </Array>
          </mxGeometry>
        </mxCell>
        <mxCell id="EDyrPu7dQQNRPbhDMoSb-7" value="Spring Boot" style="ellipse;whiteSpace=wrap;html=1;" parent="1" vertex="1">
          <mxGeometry x="90" y="180" width="120" height="80" as="geometry" />
        </mxCell>
        <mxCell id="EDyrPu7dQQNRPbhDMoSb-9" value="Restful Api" style="ellipse;whiteSpace=wrap;html=1;aspect=fixed;" parent="1" vertex="1">
          <mxGeometry x="20" y="-20" width="80" height="80" as="geometry" />
        </mxCell>
        <mxCell id="EDyrPu7dQQNRPbhDMoSb-11" value="Code java" style="text;html=1;align=center;verticalAlign=middle;resizable=0;points=[];autosize=1;strokeColor=none;fillColor=none;" parent="1" vertex="1">
          <mxGeometry x="70" y="120" width="80" height="30" as="geometry" />
        </mxCell>
        <mxCell id="EDyrPu7dQQNRPbhDMoSb-12" value="JPA/Hibernate" style="ellipse;whiteSpace=wrap;html=1;aspect=fixed;" parent="1" vertex="1">
          <mxGeometry x="220" y="-20" width="80" height="80" as="geometry" />
        </mxCell>
        <mxCell id="EDyrPu7dQQNRPbhDMoSb-14" value="Connect Database" style="text;html=1;align=center;verticalAlign=middle;resizable=0;points=[];autosize=1;strokeColor=none;fillColor=none;" parent="1" vertex="1">
          <mxGeometry x="150" y="120" width="120" height="30" as="geometry" />
        </mxCell>
        <mxCell id="EDyrPu7dQQNRPbhDMoSb-19" value="AngularJs" style="ellipse;whiteSpace=wrap;html=1;" parent="1" vertex="1">
          <mxGeometry x="540" y="110" width="120" height="80" as="geometry" />
        </mxCell>
        <mxCell id="EDyrPu7dQQNRPbhDMoSb-20" value="React" style="ellipse;whiteSpace=wrap;html=1;" parent="1" vertex="1">
          <mxGeometry x="720" y="110" width="120" height="80" as="geometry" />
        </mxCell>
        <mxCell id="EDyrPu7dQQNRPbhDMoSb-24" value="Back End" style="text;html=1;align=center;verticalAlign=middle;resizable=0;points=[];autosize=1;strokeColor=none;fillColor=none;" parent="1" vertex="1">
          <mxGeometry x="150" y="300" width="70" height="30" as="geometry" />
        </mxCell>
        <mxCell id="EDyrPu7dQQNRPbhDMoSb-25" value="Front End" style="text;html=1;align=center;verticalAlign=middle;resizable=0;points=[];autosize=1;strokeColor=none;fillColor=none;" parent="1" vertex="1">
          <mxGeometry x="690" y="310" width="80" height="30" as="geometry" />
        </mxCell>
        <mxCell id="EDyrPu7dQQNRPbhDMoSb-27" value="Learning" style="text;html=1;align=center;verticalAlign=middle;resizable=0;points=[];autosize=1;strokeColor=none;fillColor=none;" parent="1" vertex="1">
          <mxGeometry x="190" y="80" width="70" height="30" as="geometry" />
        </mxCell>
        <mxCell id="EDyrPu7dQQNRPbhDMoSb-28" value="Learn" style="text;html=1;align=center;verticalAlign=middle;resizable=0;points=[];autosize=1;strokeColor=none;fillColor=none;" parent="1" vertex="1">
          <mxGeometry x="100" y="300" width="50" height="30" as="geometry" />
        </mxCell>
        <mxCell id="zgpdS88G5yF-iRk3dVeh-1" value="MongoDB" style="ellipse;whiteSpace=wrap;html=1;aspect=fixed;" vertex="1" parent="1">
          <mxGeometry x="350" y="-20" width="80" height="80" as="geometry" />
        </mxCell>
        <mxCell id="zgpdS88G5yF-iRk3dVeh-3" value="Purpose" style="text;html=1;align=center;verticalAlign=middle;resizable=0;points=[];autosize=1;strokeColor=none;fillColor=none;" vertex="1" parent="1">
          <mxGeometry x="390" y="80" width="70" height="30" as="geometry" />
        </mxCell>
        <mxCell id="zgpdS88G5yF-iRk3dVeh-4" value="Purpose" style="text;html=1;align=center;verticalAlign=middle;resizable=0;points=[];autosize=1;strokeColor=none;fillColor=none;" vertex="1" parent="1">
          <mxGeometry x="780" y="220" width="70" height="30" as="geometry" />
        </mxCell>
        <mxCell id="zgpdS88G5yF-iRk3dVeh-5" value="Learning" style="text;html=1;align=center;verticalAlign=middle;resizable=0;points=[];autosize=1;strokeColor=none;fillColor=none;" vertex="1" parent="1">
          <mxGeometry x="530" y="220" width="70" height="30" as="geometry" />
        </mxCell>
      </root>
    </mxGraphModel>
  </diagram>
</mxfile>
